<svg width="163" height="163" viewBox="0 0 163 163" fill="none" xmlns="http://www.w3.org/2000/svg">
<g clip-path="url(#clip0_71_13)">
<rect width="163" height="163" rx="81.5" fill="white"/>
<path d="M96.5 156H163V163H96.5L81.8649 161.459L68 163H-7V156H68L81.8649 158.311L96.5 156Z" fill="black"/>
<path d="M111 147H163V154H111L90 152H71.5L49.5 154H-7V147H49.5L71.5 150H90L111 147Z" fill="black"/>
<path d="M122.5 138H163V145H122.5L101.5 143H59.5L37.5 145H-7V138H37.5L59.5 141H101.5L122.5 138Z" fill="black"/>
<path d="M127 129H163V136H127L106 134H58L36 136H-7V129H36L58 132H106L127 129Z" fill="black"/>
<path d="M128 120H163V127H128L107 125H53L31 127H-7V120H31L53 123H107L128 120Z" fill="black"/>
<path d="M135.5 111H163V118H135.5L114.5 116H46L24 118H-7V111H24L46 114H114.5L135.5 111Z" fill="black"/>
<path d="M144.5 102H163V109H144.5L123.5 107H38.5L16.5 109H-7V102H16.5L38.5 105H123.5L144.5 102Z" fill="black"/>
<path d="M149 93H163V100H149L128 98H35L13 100H-7V93H13L35 96H128L149 93Z" fill="black"/>
<path d="M149.5 84H163V91H149.5L128.5 89H34.5L12.5 91H-7V84H12.5L34.5 87H128.5L149.5 84Z" fill="black"/>
<path d="M149 75H163V82H149L128 80H36L14 82H-7V75H14L36 78H128L149 75Z" fill="black"/>
<path d="M148.5 66H163V73H148.5L127.5 71H35L13 73H-7V66H13L35 69H127.5L148.5 66Z" fill="black"/>
<path d="M146.5 57H163V64H146.5L125.5 62H34.5L12.5 64H-7V57H12.5L34.5 60H125.5L146.5 57Z" fill="black"/>
<path d="M147 48H163V55H147L126 53H35.5L13.5 55H-7V48H13.5L35.5 51H126L147 48Z" fill="black"/>
<path d="M144.5 39H163V46H144.5L123.5 44H39.5L17.5 46H-7V39H17.5L39.5 42H123.5L144.5 39Z" fill="black"/>
<path d="M142.5 30H163V37H142.5L121.5 35H40L18 37H-7V30H18L40 33H121.5L142.5 30Z" fill="black"/>
<path d="M140 21H163V28H140L119 26H43L21 28H-7V21H21L43 24H119L140 21Z" fill="black"/>
<path d="M139.5 12H163V19H139.5L118.5 17H43.5L21.5 19H-7V12H21.5L43.5 15H118.5L139.5 12Z" fill="black"/>
<path d="M140 3H163V10H140L119 8H40L18 10H-7V3H18L40 6H119L140 3Z" fill="black"/>
<path d="M115.5 -3H163V4H115.5L94.5 2H64L42 4H-7V-3H42L64 0H94.5L115.5 -3Z" fill="black"/>
<path d="M122.85 -47.8496V95.4082L122.006 95.9551L106.938 105.721L89.3496 140.799L88.8379 141.819H85.0107L84.8994 167.008L84.8906 168.85H78.1094L78.1006 167.008L77.9912 141.937H74.1641L73.6514 140.919L56.0635 105.996L40.9971 96.2725L40.1504 95.7266V-47.8496H122.85Z" fill="#C10000" stroke="black" stroke-width="3.7"/>
</g>
<defs>
<clipPath id="clip0_71_13">
<rect width="163" height="163" rx="81.5" fill="white"/>
</clipPath>
</defs>
</svg>
